<svg viewBox="0 0 72 72" xmlns="http://www.w3.org/2000/svg"><path d="m45 56.4349v-4.4349" fill="#fff"/><path d="m58 53.4349v-4.4349" fill="#fff"/><path d="m37.9219 35.1094 2.4686 6.5652 5.3595 5.5501-35.5-.0997 3.7917-4.875 1.625-8.1719 4.7639-12.9305 2.7222 2.7222 2.7222 2.0417 2.7222 5.4444h3.4028l5.4444 4.0833" style="fill:#9b9b9a;stroke:#9b9b9a;stroke-linecap:round;stroke-linejoin:round;stroke-miterlimit:10;stroke-width:.9"/><path d="m37 52c-2.6985-2.7727-4.6708-3.179-6-3-3.0049.4046-4.3383 4.0176-8 4-.3861-.0019-1.3036-.0068-2.3333-.4544-2.6102-1.1346-3.056-3.9705-6.6667-3.5456-4.0531.477-4.909 4.5912-8 4h29.6875" style="fill:#92d3f5;stroke:#92d3f5;stroke-linecap:round;stroke-linejoin:round;stroke-miterlimit:10;stroke-width:1.9"/><path d="m66.28 39.6464c0-1.586-1.6295-2.8743-3.6396-2.8743-.1679.0014-.3356.012-.5025.0318-.8512-1.6546-2.6995-2.8039-4.8488-2.8039-2.9556 0-5.3514 2.1685-5.3514 4.8432.0005.1768.0116.3535.0332.5288-1.3211.4311-2.2509 1.4576-2.2509 2.6564 0 1.5861 1.6295 2.8743 3.6396 2.8743.764.0066 1.5164-.1926 2.1825-.578.8599.7071 2.2359 1.1677 3.7918 1.1677 2.6069 0 4.7201-1.2869 4.7201-2.8743-.0004-.1049-.0101-.2096-.029-.3128 1.323-.4317 2.255-1.4588 2.255-2.6589z" fill="#b1cc33" stroke="#b1cc33" stroke-linecap="round" stroke-miterlimit="10" stroke-width="1.9"/><path d="m52.898 42.9002c0-1.586-1.6295-2.8743-3.6396-2.8743-.1679.0014-.3356.012-.5025.0318-.8512-1.6546-2.6995-2.8039-4.8488-2.8039-2.9556 0-5.3514 2.1685-5.3514 4.8432.0005.1768.0116.3535.0332.5288-1.3211.4311-2.2509 1.4576-2.2509 2.6564 0 1.5861 1.6295 2.8743 3.6396 2.8743.764.0066 1.5164-.1926 2.1825-.578.8599.7071 2.2359 1.1677 3.7918 1.1677 2.6069 0 4.7201-1.2869 4.7201-2.8743-.0004-.1049-.0101-.2096-.029-.3128 1.323-.4317 2.255-1.4588 2.255-2.6589z" fill="#b1cc33"/><g stroke-linecap="round"><path d="m45 56.4349v-4.4349" fill="none" stroke="#000" stroke-linejoin="round" stroke-width="2"/><path d="m58 53.4349v-4.4349" fill="none" stroke="#000" stroke-linejoin="round" stroke-width="2"/><path d="m28.6757 31.1351-2.7027-5.4054-2.7027-2.027-2.7027-2.7027-4.7298 12.8378-1.3513 8.1081-2.7027 4.0541" fill="none" stroke="#000" stroke-linejoin="round" stroke-miterlimit="10" stroke-width="2"/><path d="m24.6216 25.0541.6757 6.081h6.7568l5.4054 4.0541" fill="none" stroke="#000" stroke-linejoin="round" stroke-miterlimit="10" stroke-width="2"/><path d="m32.0541 31.1351 2.027 4.0541.6757 4.054-2.7027 4.0567-4.0541 2.7001" fill="none" stroke="#000" stroke-linejoin="round" stroke-miterlimit="10" stroke-width="2"/><path d="m55.5421 44.3247c.8599.7071 2.2359 1.1677 3.7918 1.1677 2.6069 0 4.7201-1.287 4.7201-2.8743-.0004-.1049-.0101-.2096-.029-.3128 1.323-.4317 2.255-1.4588 2.255-2.6589 0-1.586-1.6295-2.8743-3.6396-2.8743-.1679.0014-.3356.012-.5025.0318-.8512-1.6546-2.6995-2.8039-4.8488-2.8039-2.5086 0-4.6139 1.5621-5.1934 3.6701" fill="none" stroke="#000" stroke-miterlimit="10" stroke-width="2"/><path d="m52.898 42.9002c0-1.586-1.6295-2.8743-3.6396-2.8743-.1679.0014-.3356.012-.5025.0318-.8512-1.6546-2.6995-2.8039-4.8488-2.8039-2.9556 0-5.3514 2.1685-5.3514 4.8432.0005.1768.0116.3535.0332.5288-1.3211.4311-2.2509 1.4576-2.2509 2.6564 0 1.5861 1.6295 2.8743 3.6396 2.8743.764.0066 1.5164-.1926 2.1825-.578.8599.7071 2.2359 1.1677 3.7918 1.1677 2.6069 0 4.7201-1.2869 4.7201-2.8743-.0004-.1049-.0101-.2096-.029-.3128 1.323-.4317 2.255-1.4588 2.255-2.6589z" fill="none" stroke="#000" stroke-miterlimit="10" stroke-width="1.9"/><path d="m6 53c3.091.5912 3.9469-3.523 8-4 3.6107-.4249 4.0565 2.411 6.6667 3.5456 1.0297.4476 1.9472.4525 2.3333.4544 3.6617.0176 4.9951-3.5954 8-4 1.3292-.179 3.3015.2273 6 3" fill="none" stroke="#000" stroke-linejoin="round" stroke-miterlimit="10" stroke-width="2"/></g></svg>