<svg viewBox="0 0 400 300" xmlns="http://www.w3.org/2000/svg"><path d="m292.69 100.46s-3.94-12.1-9-16.89-18.86-6.48-22.52-3.38 0 7 0 7 .28 8.17 3.66 13.52 15.48 4.78 15.48 4.78v36.51c-9.57-9.18-24.49 3.26-24.49 3.26-8.45-9.29-20.41-1.49-20.41-1.49h-70.81s-12-7.8-20.41 1.49c0 0-14.93-12.44-24.5-3.26v-36.47s12.11.57 15.49-4.78 3.66-13.52 3.66-13.52 3.66-3.94 0-7-17.46-1.41-22.53 3.38-9 16.89-9 16.89-17.74 40-15.2 59.41c0 0 21.6 23.37 49.8 18l10 17.2 13.8 23.63v19.43h.07 68.37.06v-19.45l13.8-23.63 10.05-17.2c28.2 5.35 49.8-18 49.8-18 2.57-19.44-15.17-59.43-15.17-59.43z" fill="#ffc9b0"/><path d="m234.19 239.18h-68.37a1.07 1.07 0 0 1 -.41-.08 1.12 1.12 0 0 1 -.66-.95v-19.15l-23.36-40c-28.09 4.88-49.81-18.21-50-18.45a1 1 0 0 1 -.26-.55c-2.53-19.32 14.28-57.68 15.26-59.9.32-1 4.17-12.45 9.25-17.25s19.68-7 23.87-3.42a5.14 5.14 0 0 1 2 3.67 7 7 0 0 1 -1.64 4.52c-.09 1.67-.67 8.73-3.79 13.67s-12.08 5.26-15.27 5.26h-.07v33.32c8.73-6 20.38 1.77 23.4 4 8.13-8 19-2.22 20.79-1.15h70.24c1.83-1.07 12.65-6.88 20.79 1.15 3-2.24 14.67-10.06 23.39-4v-33.32c-3.17 0-12.25-.4-15.32-5.26s-3.71-12-3.8-13.67a7.08 7.08 0 0 1 -1.64-4.52 5.17 5.17 0 0 1 2-3.67c4.2-3.55 18.69-1.47 23.86 3.42s8.94 16.28 9.26 17.25c1 2.22 17.78 40.58 15.26 59.9a.93.93 0 0 1 -.25.55c-.22.24-21.95 23.33-50 18.45l-23.36 40v19.15a1 1 0 0 1 -.57.91 1.36 1.36 0 0 1 -.6.12zm-67.44-2h66.5v-18.46a1 1 0 0 1 .14-.5l23.85-40.83a1 1 0 0 1 1.05-.48c25.83 4.91 46.34-15.12 48.66-17.49 2.23-19-15-58.16-15.17-58.55a.3.3 0 0 1 0-.1c0-.11-3.92-11.91-8.75-16.47s-18.03-6.06-21.22-3.3a3.15 3.15 0 0 0 -1.27 2.25 5.3 5.3 0 0 0 1.36 3.35 1 1 0 0 1 .26.64c0 .08.31 8 3.51 13 3 4.8 14.47 4.32 14.58 4.32a1 1 0 0 1 .74.27 1 1 0 0 1 .31.72v36.45a1 1 0 0 1 -1.69.73c-8.81-8.45-23 3.18-23.16 3.3a1 1 0 0 1 -1.38-.09c-7.77-8.54-18.66-1.63-19.12-1.33a1 1 0 0 1 -.55.16h-70.8a1 1 0 0 1 -.54-.16c-.47-.3-11.37-7.21-19.13 1.33a1 1 0 0 1 -1.38.09c-.14-.12-14.36-11.75-23.17-3.3a1 1 0 0 1 -1.69-.73v-36.47a1 1 0 0 1 .31-.72.93.93 0 0 1 .74-.27c.12 0 11.57.48 14.59-4.32 3.2-5 3.51-12.94 3.51-13a1 1 0 0 1 .27-.65 5.3 5.3 0 0 0 1.35-3.34 3.15 3.15 0 0 0 -1.27-2.23c-3.19-2.76-16.41-1.21-21.19 3.3s-8.71 16.36-8.75 16.47a.3.3 0 0 1 0 .1c-.17.39-17.39 39.51-15.16 58.55 2.32 2.37 22.82 22.39 48.66 17.49a1 1 0 0 1 1 .48l23.85 40.83a1 1 0 0 1 .14.5z" fill="#093f68"/><path d="m189.8 149v-11l20.56.26v11" fill="#ffc9b0"/><path d="m210.36 150.21a1 1 0 0 1 -1-1v-10l-18.51-.21v10a1 1 0 0 1 -1 1 1 1 0 0 1 -1-1v-11a1 1 0 0 1 .3-.71 1 1 0 0 1 .71-.29l20.56.26a1 1 0 0 1 1 1v11a1 1 0 0 1 -1.06.95z" fill="#093f68"/><path d="m169.19 117.38c.9 0-1.24-3.86-1.36-4.13-2.12-5-2.35-11-1.87-16.37s2.33-12.55 8.58-13.7a5.84 5.84 0 0 1 -4.88-1.73 17.31 17.31 0 0 1 -3-4.4 11 11 0 0 0 8.57-1.42c2.32-1.37 3.43-3.29 5.19-5.17a20.78 20.78 0 0 1 5.9-4c8.44-4.17 18.49-2.69 27.63-.44 3.9 1 7.9 2.11 11 4.65s5.15 6.82 3.92 10.65c4.66.58 7.1 1.36 7.51 6.59.63 8.07-4.46 29.43-4.46 29.43l-5.49-1z" fill="#725858"/><path d="m169.19 118.38a1 1 0 0 1 -.83-1.57 16.94 16.94 0 0 0 -1.25-2.78c-.11-.2-.18-.34-.2-.39-1.89-4.48-2.55-10.15-1.94-16.85s2.63-11.05 6-13.24a8.17 8.17 0 0 1 -2-1.37 18 18 0 0 1 -3.23-4.65 1 1 0 0 1 .09-1.1 1 1 0 0 1 1.06-.34 10 10 0 0 0 7.78-1.31 13.62 13.62 0 0 0 3.52-3.33c.46-.55.93-1.12 1.45-1.68a22 22 0 0 1 6.19-4.2c8.92-4.41 19.32-2.74 28.31-.52 4 1 8.11 2.15 11.41 4.85 2.89 2.35 5.26 6.43 4.53 10.58 4 .6 6.83 1.79 7.27 7.35.64 8.14-4.28 28.87-4.49 29.74a1 1 0 0 1 -1.15.76l-5.39-1-57.11 1.07zm5.37-36.2a1 1 0 0 1 .18 2c-5.55 1-7.28 7.53-7.76 12.81-.58 6.37 0 11.71 1.79 15.89a2.29 2.29 0 0 1 .13.25 17.31 17.31 0 0 1 1.43 3.25l56.07-1h.21l4.54.85c1-4.18 4.76-21.31 4.22-28.2-.35-4.47-2.09-5.1-6.63-5.66a1 1 0 0 1 -.72-.46 1 1 0 0 1 -.11-.84c1.16-3.62-1.06-7.5-3.6-9.57-3-2.43-6.89-3.54-10.63-4.46-8.64-2.13-18.6-3.76-26.94.37a20.2 20.2 0 0 0 -5.62 3.78c-.49.53-.93 1.06-1.37 1.59a15.42 15.42 0 0 1 -4 3.76 12.66 12.66 0 0 1 -7.18 1.89 11.37 11.37 0 0 0 1.82 2.34 4.78 4.78 0 0 0 4 1.47h.19z" fill="#093f68"/><ellipse cx="175.05" cy="117.45" fill="#ffc9b0" rx="7.42" ry="8.62" transform="matrix(.01256604 -.99992104 .99992104 .01256604 55.4 291.01)"/><path d="m175.09 125.88h-.09a10.32 10.32 0 0 1 -6.72-2.51 7.87 7.87 0 0 1 -2.79-6c.05-4.6 4.34-8.3 9.58-8.3h.14a10.29 10.29 0 0 1 6.71 2.5 7.71 7.71 0 0 1 -.15 12 10.25 10.25 0 0 1 -6.68 2.31zm-.09-14.88c-4.15 0-7.54 2.82-7.58 6.33a5.9 5.9 0 0 0 2.12 4.52 8.34 8.34 0 0 0 5.41 2 8 8 0 0 0 5.46-1.87 5.71 5.71 0 0 0 .12-9 8.26 8.26 0 0 0 -5.42-2z" fill="#093f68"/><ellipse cx="225.28" cy="118.08" fill="#ffc9b0" rx="7.42" ry="8.62" transform="matrix(.01256604 -.99992104 .99992104 .01256604 104.37 341.86)"/><path d="m225.32 126.51h-.15a10.29 10.29 0 0 1 -6.71-2.5 7.89 7.89 0 0 1 -2.79-6.05c.05-4.6 4.34-8.3 9.58-8.3h.14c5.3.07 9.57 3.9 9.51 8.55a7.91 7.91 0 0 1 -3 6 10.3 10.3 0 0 1 -6.58 2.3zm-.07-14.85c-4.15 0-7.54 2.82-7.58 6.33a5.91 5.91 0 0 0 2.11 4.52 8.36 8.36 0 0 0 5.42 2 8.19 8.19 0 0 0 5.46-1.86 5.94 5.94 0 0 0 2.24-4.47c0-3.54-3.34-6.47-7.54-6.52z" fill="#093f68"/><path d="m200.09 142c-21 0-25.84-12-25.66-26.31 0-4-.76-16.85.48-18.84 1.46-2.32 4.23-3.72 6.69-4.7s5-1.75 7.54-1.28a.89.89 0 0 1 .61.29c.2.3 0 .69-.17 1a24.88 24.88 0 0 1 -5.32 6.07 23.83 23.83 0 0 0 11.89-2.1 52.15 52.15 0 0 0 10.37-6.37 14.31 14.31 0 0 1 -6.73 12.1 21.61 21.61 0 0 0 17.27-6.24c1.12-1.13 2.18-2.44 3.67-3 7.23-2.65 5.86 8.72 5.82 12.33l-.15 11.39c-.18 14.32-5.3 25.66-26.31 25.66z" fill="#ffc9b0"/><g fill="#093f68"><path d="m200.09 143c-9.19 0-15.81-2.19-20.26-6.69s-6.52-11.23-6.4-20.64c0-1 0-2.65-.08-4.53-.21-7.42-.29-13.22.72-14.82 1.68-2.68 4.89-4.19 7.16-5.09s5.25-1.87 8.09-1.35a1.91 1.91 0 0 1 1.25.71 1.79 1.79 0 0 1 -.14 2.09 25.86 25.86 0 0 1 -3.69 4.64 24.28 24.28 0 0 0 9-2.12 51.21 51.21 0 0 0 10.17-6.25 1 1 0 0 1 1.6.79 15.34 15.34 0 0 1 -4.88 11.19 20.86 20.86 0 0 0 13.71-6c.17-.18.35-.36.52-.55a9.66 9.66 0 0 1 3.52-2.68c1.91-.7 3.5-.6 4.73.3 2.88 2.11 2.63 8 2.48 11.57v1.41l-.15 11.39c-.18 11.39-3.17 26.63-27.35 26.63zm-12.48-51.3a15.92 15.92 0 0 0 -5.61 1.35c-2 .8-4.84 2.12-6.21 4.3-.76 1.22-.53 9.65-.41 13.7.05 1.91.1 3.56.08 4.62-.11 8.84 1.8 15.13 5.83 19.21s10.2 6.09 18.83 6.09c22.16 0 25.17-13.18 25.31-24.67l.15-11.4c0-.4 0-.9 0-1.47.12-2.93.36-8.39-1.66-9.87a3 3 0 0 0 -2.86 0 7.94 7.94 0 0 0 -2.76 2.18l-.55.57a22.48 22.48 0 0 1 -18.08 6.53 1 1 0 0 1 -.42-1.85 13.32 13.32 0 0 0 6.09-9.14 48.1 48.1 0 0 1 -8.8 5.15 24.71 24.71 0 0 1 -12.39 2.17 1 1 0 0 1 -.53-1.76 23.85 23.85 0 0 0 5-5.65 6.77 6.77 0 0 0 -1.01-.06z"/><circle cx="190.84" cy="112.08" r="2.41"/><circle cx="213.25" cy="112.36" r="2.41"/><path d="m202.58 123.18a15.49 15.49 0 0 1 -2.58-.18 1 1 0 1 1 .38-2 11.76 11.76 0 0 0 3.28.11 17.89 17.89 0 0 0 -1.94-5.39 1 1 0 1 1 1.78-.9c1.05 2.06 2.69 5.75 2 7.32a1.54 1.54 0 0 1 -1.05.86 8.3 8.3 0 0 1 -1.87.18z"/><path d="m196.65 106.08h-.26l-11.39-1.44a2 2 0 1 1 .5-4l11.38 1.43a2 2 0 0 1 -.24 4z"/><path d="m209.81 106.17a2 2 0 0 1 0-4l11.48-.06a2 2 0 0 1 0 4l-11.47.06z"/><path d="m205.84 132.29c-2.76 0-8.41-.82-14.59-6.46a1 1 0 0 1 -.07-1.41 1 1 0 0 1 1.42-.07c7.73 7.06 14.56 5.85 14.62 5.84a1 1 0 0 1 1.17.79 1 1 0 0 1 -.78 1.17 9.22 9.22 0 0 1 -1.77.14z"/><path d="m219.49 94.27a1 1 0 0 1 -.33-1.94 13.27 13.27 0 0 0 6.09-5.6 1 1 0 1 1 1.72 1 14.94 14.94 0 0 1 -7.15 6.47 1.26 1.26 0 0 1 -.33.07z"/></g><path d="m165.75 238.15h.07 68.37.06v-19.43l13.8-23.63c-4-3.09-13.91-11.49-15.47-20.86-2-11.82.84-30.37.84-30.37l-.3-.12h-6.75c-1.79 13.89-7.37 25.26-16.17 31.62-2.48 1.8-4.93 2.92-10.2 2.92s-7.73-1.12-10.2-2.92c-8.75-6.37-14.38-17.73-16.17-31.62h-6.76l-.3.12s2.82 18.55.85 30.37c-1.56 9.37-11.42 17.77-15.42 20.86l13.8 23.63z" fill="#68e1fd"/><path d="m234.19 239.18h-68.37a1.07 1.07 0 0 1 -.41-.08 1.12 1.12 0 0 1 -.66-.95v-19.15l-13.66-23.4a1 1 0 0 1 .25-1.3c4-3.09 13.6-11.25 15.09-20.23 1.93-11.53-.82-29.87-.85-30.06a1 1 0 0 1 .62-1.07l.3-.12a1 1 0 0 1 .37-.08h6.76a1 1 0 0 1 1 .88c1.79 13.85 7.39 24.83 15.77 30.94 2.43 1.77 4.68 2.72 9.61 2.72s7.17-.95 9.61-2.73c8.39-6.1 14-17.08 15.77-30.93a1 1 0 0 1 1-.88h6.75a.91.91 0 0 1 .37.08l.3.12a1 1 0 0 1 .62 1.07c0 .19-2.76 18.53-.84 30.06 1.49 9 11.05 17.14 15.09 20.23a1 1 0 0 1 .25 1.3l-13.68 23.4v19.15a1 1 0 0 1 -.57.91 1.36 1.36 0 0 1 -.49.12zm-67.44-2h66.5v-18.46a1 1 0 0 1 .14-.5l13.36-22.87c-4.54-3.58-13.63-11.76-15.16-20.95-1.72-10.38.13-25.55.7-29.66h-5c-2 14-7.81 25.13-16.46 31.43-2.72 2-5.35 3.11-10.79 3.11s-8.08-1.14-10.79-3.11c-8.65-6.3-14.48-17.43-16.45-31.43h-5c.56 4.11 2.43 19.28.7 29.66-1.53 9.19-10.61 17.37-15.15 20.95l13.35 22.87a1 1 0 0 1 .14.5z" fill="#093f68"/><path d="m142.63 177.66a17.13 17.13 0 0 1 -10.4-3.09 13.6 13.6 0 0 1 -4.66-5.82 1 1 0 0 1 1.89-.67c.16.45 4.17 10.93 20.57 6.5a1 1 0 0 1 .52 1.94 30.47 30.47 0 0 1 -7.92 1.14z" fill="#093f68"/><path d="m252.87 177.66a30.66 30.66 0 0 1 -7.91-1.14 1 1 0 0 1 .52-1.94c16.4 4.43 20.41-6.05 20.58-6.5a1 1 0 0 1 1.27-.6 1 1 0 0 1 .61 1.27c-.04.11-3.32 8.91-15.07 8.91z" fill="#093f68"/></svg>