<svg height="60" viewBox="0 0 60 60" width="60" xmlns="http://www.w3.org/2000/svg"><g fill="none" fill-rule="evenodd" stroke="#314e55" stroke-linejoin="round" stroke-width="2" transform="translate(3 8)"><g stroke-linecap="round"><path d="m2 25h50v23h-50z" fill="#e9e7d1"/><path d="m2 17h50v8h-50z" fill="#73c9c9"/><path d="m6 17 2.5 8" fill="#d8d8d8"/><path d="m16 17 2.5 8" fill="#d8d8d8"/><path d="m26 17 2.5 8" fill="#d8d8d8"/><path d="m36 17 2.5 8" fill="#d8d8d8"/><g transform="matrix(.9961947 -.08715574 .08715574 .9961947 .314536 5.300297)"><path d="m1 0h50v8h-50z" fill="#f28544"/><path d="m5 0 2.5 8"/><path d="m15 0 2.5 8"/><path d="m25 0 2.5 8"/><path d="m35 0 2.5 8"/><path d="m45 0 2.5 8"/></g><path d="m46 17 2.5 8" fill="#d8d8d8"/></g><path d="m6 29h19" fill="#d8d8d8" stroke-linecap="square"/><path d="m6 32h19" fill="#d8d8d8" stroke-linecap="square"/><path d="m6 40h42" stroke-linecap="square"/><path d="m12 40v4" stroke-linecap="square"/><path d="m22 40v4" stroke-linecap="square"/><path d="m32 40v4" stroke-linecap="square"/><path d="m42 40v4" stroke-linecap="square"/></g></svg>