<svg viewBox="0 0 400 300" xmlns="http://www.w3.org/2000/svg"><path d="m189.13 154.92h21.74a31.44 31.44 0 0 1 31.44 31.44v39.44a0 0 0 0 1 0 0h-84.62a0 0 0 0 1 0 0v-39.44a31.44 31.44 0 0 1 31.44-31.44z" fill="#f56132"/><path d="m242.31 226.8h-84.62a1 1 0 0 1 -1-1v-39.44a32.47 32.47 0 0 1 32.44-32.44h21.74a32.47 32.47 0 0 1 32.44 32.44v39.44a1 1 0 0 1 -1 1zm-83.62-2h82.62v-38.44a30.48 30.48 0 0 0 -30.44-30.44h-21.74a30.48 30.48 0 0 0 -30.44 30.44z" fill="#093f68"/><path d="m221.18 206.79a1 1 0 0 1 -1-1v-42.1a1 1 0 0 1 2 0v42.1a1 1 0 0 1 -1 1z" fill="#093f68"/><path d="m178.82 206.79a1 1 0 0 1 -1-1v-42.1a1 1 0 0 1 2 0v42.1a1 1 0 0 1 -1 1z" fill="#093f68"/><path d="m156.64 98.2c0-25.51 19.05-38.77 42.54-38.77s42.54 13.26 42.54 38.77-19 46.19-42.54 46.19-42.54-20.68-42.54-46.19z" fill="#725858"/><path d="m199.18 145.39c-24 0-43.54-21.17-43.54-47.19 0-24.16 17.09-39.77 43.54-39.77s43.54 15.57 43.54 39.77c0 26.02-19.53 47.19-43.54 47.19zm0-85c-25.23 0-41.54 14.83-41.54 37.77 0 24.92 18.64 45.19 41.54 45.19s41.54-20.27 41.54-45.19c0-22.9-16.3-37.73-41.54-37.73z" fill="#093f68"/><path d="m193.11 148.48h12.14a0 0 0 0 1 0 0v7a5.16 5.16 0 0 1 -5.16 5.16h-1.83a5.16 5.16 0 0 1 -5.16-5.16v-7a0 0 0 0 1 0 0z" fill="#ffc9b0"/><path d="m200.1 161.62h-1.83a6.16 6.16 0 0 1 -6.16-6.16v-7a1 1 0 0 1 1-1h12.14a1 1 0 0 1 1 1v7a6.16 6.16 0 0 1 -6.15 6.16zm-6-12.14v6a4.16 4.16 0 0 0 4.16 4.16h1.83a4.15 4.15 0 0 0 4.15-4.16v-6z" fill="#093f68"/><ellipse cx="164.48" cy="120.59" fill="#ffc9b0" rx="11.8" ry="10.17"/><path d="m164.48 131.76c-7.06 0-12.8-5-12.8-11.17s5.74-11.17 12.8-11.17 12.8 5 12.8 11.17-5.74 11.17-12.8 11.17zm0-20.34c-6 0-10.8 4.12-10.8 9.17s4.84 9.17 10.8 9.17 10.8-4.12 10.8-9.17-4.85-9.17-10.8-9.17z" fill="#093f68"/><ellipse cx="233.26" cy="120.59" fill="#ffc9b0" rx="11.8" ry="10.17"/><path d="m233.26 131.76c-7.06 0-12.8-5-12.8-11.17s5.74-11.17 12.8-11.17 12.8 5 12.8 11.17-5.74 11.17-12.8 11.17zm0-20.34c-5.95 0-10.8 4.12-10.8 9.17s4.85 9.17 10.8 9.17 10.8-4.12 10.8-9.17-4.85-9.17-10.8-9.17z" fill="#093f68"/><path d="m221 91.87c-5 .7-10.08 1.24-15.51.33 3-3.29 6.12-7.12 5.77-11.53a35.46 35.46 0 0 1 -31.26 13.63l10.44-14.25c-7.9 3-16.08 6.36-21.74 12.91-6.13 7.1-5.07 16.19-5.07 25.18a35.59 35.59 0 1 0 71.17 0v-27.67a95.45 95.45 0 0 0 -13.8 1.4z" fill="#ffc9b0"/><g fill="#093f68"><path d="m199.18 154.73a36.63 36.63 0 0 1 -36.58-36.59c0-1.15 0-2.31 0-3.46-.11-7.81-.24-15.9 5.36-22.37s13.69-10 22.14-13.2a1 1 0 0 1 1.15.33 1 1 0 0 1 0 1.2l-9.38 12.8a34.52 34.52 0 0 0 28.64-13.37 1 1 0 0 1 1.08-.36 1 1 0 0 1 .72.88c.32 4.13-2 7.65-4.79 10.88a54 54 0 0 0 13.39-.59l2-.29a87.18 87.18 0 0 1 11.9-1.12 1 1 0 0 1 1 1v27.67a36.63 36.63 0 0 1 -36.63 36.59zm-11.6-72.51c-7.19 2.87-13.48 6-18.15 11.4-5.1 5.89-5 13.25-4.87 21v3.49a34.59 34.59 0 1 0 69.17 0v-26.63a87.38 87.38 0 0 0 -10.62 1.09l-2 .29c-4.89.68-10.15 1.27-15.81.33a1 1 0 0 1 -.58-1.66c2.16-2.4 4.27-4.93 5.13-7.66a36.54 36.54 0 0 1 -30 11.42 1 1 0 0 1 -.81-.59 1 1 0 0 1 .1-1z"/><circle cx="182.71" cy="112.96" r="3.29"/><circle cx="216.69" cy="112.96" r="3.29"/><path d="m199 125a19.5 19.5 0 0 1 -3.2-.27 1 1 0 0 1 -.81-1.15 1 1 0 0 1 1.16-.82 15.3 15.3 0 0 0 4.91 0c.22-.92-1-4.47-2.77-7.82a1 1 0 0 1 1.77-.93c.9 1.73 3.76 7.51 2.79 9.66a1.74 1.74 0 0 1 -1.18 1 11.26 11.26 0 0 1 -2.67.33z"/><path d="m189.44 103.28h-15.71a1.59 1.59 0 0 1 0-3.18h15.72a1.59 1.59 0 0 1 0 3.18z"/><path d="m211.84 103.66a1.59 1.59 0 0 1 -.08-3.18l15.69-.8a1.59 1.59 0 1 1 .16 3.17l-15.69.81z"/><path d="m201.42 138.78c-7.43 0-15.4-4.08-15.88-4.33a1 1 0 0 1 -.42-1.35 1 1 0 0 1 1.34-.42c.16.08 15.37 7.85 22.19 1.79a1 1 0 0 1 1.35 1.53 12.55 12.55 0 0 1 -8.58 2.78z"/></g><path d="m149.77 171.15 5.95-3.89 43.52 12.68v36.03z" fill="#fff"/><path d="m199.23 217a1 1 0 0 1 -.67-.25l-49.46-44.86a1 1 0 0 1 .13-1.58l6-3.89a1 1 0 0 1 .82-.12l43.46 12.7a1 1 0 0 1 .72 1v36a1 1 0 0 1 -.59.92 1 1 0 0 1 -.41.08zm-47.83-45.73 46.83 42.44v-33l-42.34-12.35z" fill="#093f68"/><path d="m248.7 171.15-5.6-3.89-43.51 12.68v36.03z" fill="#fff"/><path d="m199.59 217a1 1 0 0 1 -.4-.08 1 1 0 0 1 -.6-.92v-36a1 1 0 0 1 .72-1l43.51-12.68a1 1 0 0 1 .86.13l5.59 3.89a1 1 0 0 1 .42.76 1 1 0 0 1 -.32.8l-49.1 44.82a1 1 0 0 1 -.68.28zm1-36.27v33l46.51-42.45-4.17-2.9z" fill="#093f68"/><path d="m194.03 240.57-44.26-13.85v-55.57l44.26 13.85z" fill="#68e1fd"/><path d="m194 241.57a.93.93 0 0 1 -.29 0l-44.27-13.85a1 1 0 0 1 -.7-1v-55.57a1 1 0 0 1 .41-.81 1 1 0 0 1 .89-.15l44.29 13.81a1 1 0 0 1 .7 1v55.57a1 1 0 0 1 -.4.8 1 1 0 0 1 -.63.2zm-43.23-15.57 42.23 13.21v-53.48l-42.26-13.22z" fill="#093f68"/><path d="m248.7 226.72-44.26 13.85v-55.57l44.26-13.85z" fill="#68e1fd"/><path d="m204.44 241.57a1 1 0 0 1 -.6-.2 1 1 0 0 1 -.4-.8v-55.57a1 1 0 0 1 .7-1l44.26-13.85a1 1 0 0 1 .89.15 1 1 0 0 1 .41.81v55.56a1 1 0 0 1 -.7 1l-44.27 13.85a.93.93 0 0 1 -.29.05zm1-55.84v53.48l42.26-13.21v-53.49z" fill="#093f68"/><path d="m216.1 206a1.06 1.06 0 0 1 -.59-.19 1 1 0 0 1 -.41-.81v-12.9a1 1 0 0 1 .69-.95l23.64-7.64a1 1 0 0 1 .9.14 1 1 0 0 1 .41.81v12.54a1 1 0 0 1 -.68.94l-23.64 8a1.25 1.25 0 0 1 -.32.06zm1-13.12v10.73l21.64-7.32v-10.4z" fill="#093f68"/><path d="m194.03 185h10.4v55.57h-10.4z" fill="#68e1fd" transform="matrix(-1 0 0 -1 398.47 425.57)"/><path d="m204.44 241.57h-10.44a1 1 0 0 1 -1-1v-55.57a1 1 0 0 1 1-1h10.41a1 1 0 0 1 1 1v55.57a1 1 0 0 1 -.97 1zm-9.41-2h8.41v-53.57h-8.44z" fill="#093f68"/><path d="m156.17 196.59c.73.35 1.55.88 1.54 1.69a1.52 1.52 0 0 1 -1.38 1.34 4.42 4.42 0 0 1 -2.05-.37 6.23 6.23 0 0 1 2.4 1.59 2.16 2.16 0 0 1 .2 2.67c-.71.84-2 .73-3.09.55a7.77 7.77 0 0 1 2.24 1.33 2.66 2.66 0 0 1 .89 2.35c-.25 1.28-1.75 2-3.06 1.88 1.18.66 2.55 1.68 2.3 3s-1.79 1.76-3.06 1.71a9.75 9.75 0 0 1 -8.26-6.07 14.63 14.63 0 0 1 0-10.56c.69-1.91 1.7-3.74 3.91-3.57a22.64 22.64 0 0 1 7.42 2.46z" fill="#ffc9b0"/><path d="m153.25 215.35h-.19a10.74 10.74 0 0 1 -9.14-6.67 15.49 15.49 0 0 1 0-11.3c.44-1.23 1.62-4.48 4.93-4.22a23.12 23.12 0 0 1 7.75 2.54c1.41.67 2.12 1.55 2.11 2.6a2.3 2.3 0 0 1 -1.21 2 3.17 3.17 0 0 1 .14 3.9 2.69 2.69 0 0 1 -.79.65 3.6 3.6 0 0 1 1.05 3.13 3.17 3.17 0 0 1 -1.7 2.18 3 3 0 0 1 .94 2.71c-.34 1.7-2.22 2.47-3.89 2.48zm-4.75-20.22c-1.17 0-2 .87-2.69 2.91a13.52 13.52 0 0 0 -.05 9.84 8.71 8.71 0 0 0 7.37 5.46c.91 0 1.93-.3 2-.9s-1.06-1.54-1.8-1.95a1 1 0 0 1 .57-1.87c.83.06 1.86-.36 2-1.08a1.67 1.67 0 0 0 -.6-1.42 7 7 0 0 0 -2-1.15 1 1 0 0 1 .58-1.89c.74.12 1.77.23 2.15-.21a1.24 1.24 0 0 0 -.2-1.4 5.69 5.69 0 0 0 -2-1.31 1 1 0 0 1 .75-1.85 3.72 3.72 0 0 0 1.58.32c.3 0 .52-.26.52-.36s-.2-.41-1-.78a21.79 21.79 0 0 0 -7-2.35z" fill="#093f68"/><path d="m243.83 196.59c-.73.35-1.55.88-1.54 1.69a1.52 1.52 0 0 0 1.38 1.34 4.42 4.42 0 0 0 2.05-.37 6.23 6.23 0 0 0 -2.4 1.59 2.16 2.16 0 0 0 -.2 2.67c.71.84 2 .73 3.09.55a7.77 7.77 0 0 0 -2.24 1.33 2.66 2.66 0 0 0 -.89 2.35c.25 1.28 1.75 2 3.06 1.88-1.18.66-2.55 1.68-2.3 3s1.79 1.76 3.06 1.71a9.75 9.75 0 0 0 8.26-6.07 14.63 14.63 0 0 0 0-10.56c-.69-1.91-1.7-3.74-3.91-3.57a22.64 22.64 0 0 0 -7.42 2.46z" fill="#ffc9b0"/><path d="m246.76 215.35c-1.68 0-3.56-.78-3.9-2.53a3 3 0 0 1 .94-2.71 3.17 3.17 0 0 1 -1.7-2.18 3.6 3.6 0 0 1 1.05-3.13 2.69 2.69 0 0 1 -.79-.65 3.17 3.17 0 0 1 .14-3.9 2.3 2.3 0 0 1 -1.21-2c0-1 .7-1.93 2.11-2.6a23.12 23.12 0 0 1 7.75-2.54c3.31-.26 4.49 3 4.93 4.22a15.49 15.49 0 0 1 0 11.3 10.74 10.74 0 0 1 -9.14 6.67zm-.62-6.73a1 1 0 0 1 .49 1.87c-.74.41-1.95 1.21-1.8 1.95s1.11.92 2 .9a8.71 8.71 0 0 0 7.37-5.46 13.52 13.52 0 0 0 -.05-9.84c-.77-2.16-1.6-3-2.89-2.9a21.79 21.79 0 0 0 -7 2.35c-.77.37-1 .67-1 .78s.22.32.52.36a3.72 3.72 0 0 0 1.58-.32 1 1 0 0 1 .75 1.85 5.69 5.69 0 0 0 -2 1.31 1.24 1.24 0 0 0 -.2 1.4c.38.45 1.41.33 2.15.21a1 1 0 0 1 .58 1.89 7 7 0 0 0 -2 1.15 1.67 1.67 0 0 0 -.6 1.42c.14.72 1.18 1.15 2 1.08z" fill="#093f68"/></svg>