<svg viewBox="0 0 400 300" xmlns="http://www.w3.org/2000/svg"><path d="m131.45 202.7c2.46.29 5 .21 7.3 1.13 6.9 2.74 7.78 12.27 13 17.55 3.53 3.58 8.73 4.88 13.7 5.53a75.53 75.53 0 0 0 22-.38c7.52-1.25 15.4-4 19.71-10.33 4-5.91 4.07-13.6 3.9-20.77-.14-6-.34-12-2.15-17.69s-5.5-11-10.92-13.51c-6-2.72-12.91-1.6-19.33-.26-10.16 2.11-20.42 4.68-29.3 10.05-5.9 3.57-11 8.28-17 11.7a30.85 30.85 0 0 1 -9.64 3.68c-3.46.64-6.79-.46-10-.15 2.28 7.37 11.49 12.6 18.73 13.45z" fill="#f56132"/><path d="m175.15 228.44a77 77 0 0 1 -9.83-.64c-4.56-.59-10.29-1.79-14.23-5.78-2.22-2.26-3.66-5.21-5.07-8.06-2-4-3.83-7.8-7.6-9.3a16.74 16.74 0 0 0 -5-.88c-.68-.06-1.36-.11-2-.19-7.74-.9-17.16-6.42-19.51-14.07a.91.91 0 0 1 .11-.77.9.9 0 0 1 .66-.39 23.37 23.37 0 0 1 4.51.14 19.53 19.53 0 0 0 5.4 0 30.08 30.08 0 0 0 9.36-3.58 93.38 93.38 0 0 0 9-6.1c2.58-1.91 5.25-3.89 8-5.59 9.36-5.65 20.18-8.21 29.59-10.16 6.66-1.39 13.69-2.5 19.88.33 5.14 2.34 9.3 7.46 11.4 14.05 1.91 6 2.07 12.32 2.2 17.94.19 7.82 0 15.34-4.06 21.3-3.76 5.5-10.59 9.1-20.3 10.7a76.4 76.4 0 0 1 -12.51 1.05zm-61.15-38.35c2.67 6.31 11 10.94 17.6 11.72.64.07 1.3.12 1.95.17a18.8 18.8 0 0 1 5.57 1c4.42 1.76 6.52 6 8.56 10.18 1.33 2.72 2.72 5.54 4.73 7.58 3.56 3.61 8.91 4.71 13.18 5.27a74.37 74.37 0 0 0 21.74-.38c9.21-1.52 15.65-4.87 19.12-9.94 3.77-5.52 3.92-12.73 3.74-20.25-.19-5.44-.32-11.7-2.19-17.44-1.95-6.1-5.75-10.82-10.44-13-5.69-2.6-12.39-1.52-18.77-.2-9.26 1.92-19.91 4.43-29 9.94-2.73 1.66-5.36 3.61-7.91 5.49a94.53 94.53 0 0 1 -9.13 6.22 32.06 32.06 0 0 1 -9.92 3.79 21.19 21.19 0 0 1 -5.9 0c-1.01-.05-2-.15-2.93-.15z" fill="#093f68"/><path d="m272.71 129-12 4.22c3.29 7.65 5 17.24 1.62 19.53s-19.57 4-35 2a8.74 8.74 0 0 0 -8.54 4.06h-23.44a8.76 8.76 0 0 0 -8.55-4.06c-15.39 2-31.61.31-35-2s-1.66-11.88 1.62-19.53l-12-4.22c-1.73 4-10.58 15.58-8.48 28.42 2.52 15.36 25.05 15.8 32.45 15.95 4.36.08 8.65-.06 12.35-.27 1.75-.1 3.36-.22 4.79-.34v43.85h47.85v-44c1.71.15 3.76.31 6 .44 3.71.21 8 .35 12.35.27 7.41-.15 29.94-.59 32.45-15.95 2.11-12.84-6.73-24.37-8.47-28.37z" fill="#68e1fd"/><path d="m230.36 217.56h-47.85a1 1 0 0 1 -1-1v-42.76c-1.15.09-2.4.17-3.73.25-4.41.25-8.59.34-12.43.27-7.61-.15-30.76-.6-33.41-16.78-1.75-10.68 3.87-20.58 6.89-25.9.72-1.26 1.34-2.35 1.66-3.09a1 1 0 0 1 1.24-.54l12.05 4.22a1 1 0 0 1 .59.54 1 1 0 0 1 0 .8c-3.54 8.24-4.45 16.62-2 18.31 3.08 2.1 18.83 3.78 34.29 1.81a9.78 9.78 0 0 1 9.2 4.05h22.35a9.78 9.78 0 0 1 9.21-4.05c15.45 2 31.2.29 34.28-1.81 2.47-1.69 1.56-10.07-2-18.31a1 1 0 0 1 0-.8 1 1 0 0 1 .58-.54l12.1-4.23a1 1 0 0 1 1.25.54c.32.74.94 1.83 1.65 3.09 3 5.32 8.65 15.22 6.9 25.9-2.65 16.18-25.81 16.63-33.42 16.78-3.84.07-8 0-12.43-.27-1.65-.1-3.32-.22-5-.35v42.86a1 1 0 0 1 -.97 1.01zm-46.85-2h45.85v-42.95a1 1 0 0 1 .33-.74 1 1 0 0 1 .76-.26c2 .18 4 .33 6 .44 4.36.25 8.49.34 12.27.27 7.2-.14 29.1-.57 31.48-15.11 1.64-10-3.56-19.12-6.66-24.58-.54-.95-1-1.75-1.34-2.44l-10.2 3.58c2.72 6.76 5 16.94.86 19.76-3.75 2.55-20.49 4.08-35.67 2.15a7.75 7.75 0 0 0 -7.56 3.59 1 1 0 0 1 -.85.47h-23.44a1 1 0 0 1 -.84-.47 7.78 7.78 0 0 0 -7.57-3.59c-15.18 1.93-31.92.4-35.66-2.15-4.14-2.82-1.87-13 .85-19.76l-10.2-3.58c-.35.69-.81 1.49-1.35 2.44-3.1 5.46-8.29 14.6-6.66 24.58 2.38 14.54 24.28 15 31.48 15.11 3.79.07 7.92 0 12.28-.27 1.73-.1 3.33-.22 4.75-.33a1 1 0 0 1 1.09 1z" fill="#093f68"/><path d="m155.4 126.26 1.34-3.45s3.87-1.12 4.71-3.76 2.17-5.76.43-6.42-2.47-1-2.47-1a2.91 2.91 0 0 0 0-3.22c-1.15-1.45-13.43-1.63-14.41-.3-2.91 3.92-4.23 11-3.62 16.4l-9 15.9 21 2.08z" fill="#f56132"/><path d="m153.45 143.4h-.08l-21.05-2.08a.9.9 0 0 1 -.71-.48.88.88 0 0 1 0-.85l8.83-15.66c-.51-5.13.63-12.43 3.81-16.73.24-.32.87-1.17 6.19-1.26.85 0 8.35-.1 9.66 1.53a3.41 3.41 0 0 1 .5 3.3c.38.16.91.36 1.59.62 2.31.88 1.32 3.84.45 6.45-.12.37-.24.73-.35 1.08-.79 2.52-3.75 3.8-4.87 4.21l-1.15 3-1.93 16.13a.91.91 0 0 1 -.89.74zm-19.58-3.73 18.8 1.85 1.83-15.36a.79.79 0 0 1 .06-.22l1.35-3.46a.89.89 0 0 1 .58-.54c.95-.27 3.54-1.38 4.1-3.16.11-.36.23-.73.36-1.1.49-1.48 1.31-3.94.61-4.21-1.76-.67-2.51-1-2.51-1a.92.92 0 0 1 -.5-.57.87.87 0 0 1 .11-.75 2 2 0 0 0 0-2.17c-1.2-1-11.71-1.23-13-.26-2.56 3.48-4 10.11-3.39 15.7a.81.81 0 0 1 -.11.54z" fill="#093f68"/><path d="m159.41 111.65s-10.28-1.43-9.85 1.31 6 2.79 6 2.79-5.77.69-5.16 5" fill="#f56132"/><path d="m150.37 121.69a.9.9 0 0 1 -.89-.78 4.45 4.45 0 0 1 .86-3.48 5.73 5.73 0 0 1 1.53-1.34c-1.5-.47-3-1.35-3.2-3a1.79 1.79 0 0 1 .51-1.57c1.78-1.81 8.37-1 10.35-.77a.9.9 0 0 1 .77 1 .89.89 0 0 1 -1 .76c-4.16-.58-8.45-.45-8.85.27.24 1.52 3.54 2 5.1 2a.9.9 0 0 1 .1 1.79s-2.7.35-3.88 1.89a2.69 2.69 0 0 0 -.5 2.13.91.91 0 0 1 -.77 1z" fill="#093f68"/><path d="m258.72 126.26-1.35-3.45s-3.87-1.12-4.7-3.76-2.17-5.76-.44-6.42 2.47-1 2.47-1a2.91 2.91 0 0 1 0-3.22c1.16-1.45 13.43-1.63 14.42-.3 2.9 3.92 4.22 11 3.61 16.4l9 15.9-21 2.08z" fill="#f56132"/><path d="m260.66 143.4a.89.89 0 0 1 -.89-.79l-1.93-16.13-1.15-3c-1.13-.41-4.09-1.69-4.88-4.21-.11-.35-.23-.71-.35-1.07-.87-2.62-1.85-5.58.45-6.46l1.6-.62a3.41 3.41 0 0 1 .5-3.3c1.3-1.63 8.81-1.55 9.66-1.53 5.32.09 5.94.94 6.18 1.26 3.19 4.3 4.32 11.6 3.82 16.73l8.82 15.72a.9.9 0 0 1 -.7 1.33l-21 2.08zm2.54-35.3c-3.33 0-7.11.33-7.81.92a2 2 0 0 0 .07 2.14.9.9 0 0 1 .1.75.89.89 0 0 1 -.5.57s-.74.32-2.51 1c-.7.27.13 2.73.62 4.21l.36 1.1c.56 1.78 3.14 2.89 4.09 3.16a.91.91 0 0 1 .59.54l1.34 3.46a.79.79 0 0 1 .06.22l1.84 15.36 18.8-1.85-8.25-14.68a.94.94 0 0 1 -.11-.54c.63-5.59-.82-12.22-3.45-15.76-.58-.42-2.79-.6-5.24-.6z" fill="#093f68"/><path d="m254.7 111.65s10.28-1.43 9.86 1.31-6 2.79-6 2.79 5.78.69 5.17 5" fill="#f56132"/><path d="m263.75 121.69h-.13a.9.9 0 0 1 -.76-1 2.73 2.73 0 0 0 -.51-2.13c-1.18-1.54-3.85-1.89-3.88-1.89a.9.9 0 0 1 .11-1.79c1.56 0 4.85-.52 5.09-2-.39-.73-4.69-.87-8.84-.29a.88.88 0 0 1 -1-.76.9.9 0 0 1 .76-1c2-.27 8.58-1 10.35.77a1.76 1.76 0 0 1 .51 1.57c-.25 1.64-1.69 2.52-3.19 3a5.69 5.69 0 0 1 1.52 1.34 4.5 4.5 0 0 1 .87 3.48.91.91 0 0 1 -.9.7z" fill="#093f68"/><path d="m206.52 210.89a.89.89 0 0 1 -.63-.26l-17.62-17.51a.89.89 0 0 1 0-1.25l6.56-7.1a.92.92 0 0 1 .66-.29h22.62a.89.89 0 0 1 .66.3l4.73 5.22a.89.89 0 0 1 0 1.18l-16.32 19.39a.87.87 0 0 1 -.65.32zm-16.37-18.44 16.31 16.22 15.18-18-4-4.35h-21.79z" fill="#fff"/><path d="m230.2 157.74c0 6.64-23.95 20.37-23.95 20.37s-23.94-13.73-23.94-20.37 10.72-3.69 23.94-3.69 23.95-2.96 23.95 3.69z" fill="#f56132"/><path d="m206.25 179a.92.92 0 0 1 -.45-.12c-2.49-1.43-24.39-14.19-24.39-21.15a4.54 4.54 0 0 1 1.35-3.46c2.34-2.2 7.21-1.91 14-1.5 2.89.18 6.16.37 9.54.37s6.65-.19 9.54-.37c6.74-.41 11.61-.7 14 1.5a4.57 4.57 0 0 1 1.34 3.46c0 7-21.89 19.72-24.39 21.15a.89.89 0 0 1 -.54.12zm-16.13-24.7c-2.85 0-5.07.29-6.13 1.29a2.75 2.75 0 0 0 -.79 2.15c0 4.42 13.62 13.87 23.05 19.33 9.43-5.46 23.05-14.91 23.05-19.33a2.75 2.75 0 0 0 -.79-2.15c-1.78-1.67-6.8-1.37-12.61-1-2.91.18-6.21.38-9.65.38s-6.73-.2-9.64-.38c-2.35-.16-4.56-.29-6.49-.29z" fill="#093f68"/><path d="m201.24 160.16s-.27 12.46 5 18c0 0 5.55-5.72 5.55-18.64z" fill="#093f68"/><path d="m206.25 179.11a1 1 0 0 1 -.72-.31c-5.51-5.72-5.3-18.14-5.29-18.67a1 1 0 0 1 .94-1l10.56-.69a1 1 0 0 1 .75.27 1 1 0 0 1 .31.73c0 13.18-5.59 19.09-5.83 19.33a1 1 0 0 1 -.72.34zm-4-18c.06 2.73.52 10.89 4 15.45 1.38-1.93 4.35-7.1 4.57-16z" fill="#093f68"/><path d="m168.78 107.07a54.1 54.1 0 0 1 -.63-6.14c-.4-9.83-1.33-23.26 8.85-28.65 3.24-1.72 7.8-2 10.07.88 1.75-2.77 3.7-5.62 6.64-7 3.36-1.61 7.32-1 10.94-.15a79.07 79.07 0 0 1 19.08 7.35 71 71 0 0 0 7.71 4 29.37 29.37 0 0 0 9.43 1.8c1.45 0 7.9-1.74 7.41-4.13a22.67 22.67 0 0 1 .36 9 10.85 10.85 0 0 1 -4.83 7.34 16.74 16.74 0 0 0 9.94-8.14 11.61 11.61 0 0 1 -.55 8.13 33.09 33.09 0 0 1 -4.39 7l5.93-3.47c-1.31 4.79-4.63 8.64-8.17 12-1.62 1.52-3.23 2.47-3.79 4.63-.63 2.48-.53 5.1-1.32 7.56a41.4 41.4 0 0 1 -4.07 8.9c-6.55 10.75-18.13 18-30.87 18a36.1 36.1 0 0 1 -27.85-13.74 41.24 41.24 0 0 1 -7.67-15.18 96.2 96.2 0 0 1 -2.22-9.99z" fill="#725858"/><path d="m206.52 146.94a37.3 37.3 0 0 1 -28.63-14.12 42.55 42.55 0 0 1 -7.84-15.5 97.25 97.25 0 0 1 -2.26-10.1 52.38 52.38 0 0 1 -.64-6.25v-1c-.41-9.73-1-23 9.43-28.56 3.24-1.72 7.6-2.09 10.36.18 1.68-2.56 3.61-5 6.38-6.35 3.7-1.77 7.94-1.1 11.61-.21a80.22 80.22 0 0 1 19.32 7.44l1.79 1a47.61 47.61 0 0 0 5.8 2.91 28.07 28.07 0 0 0 9.09 1.74c1 0 5.07-1.11 6.19-2.46.24-.29.21-.43.2-.47a1 1 0 0 1 .78-1.18 1 1 0 0 1 1.18.77 23.24 23.24 0 0 1 .36 9.38 13.56 13.56 0 0 1 -1.39 3.84 15.61 15.61 0 0 0 4.62-5.28 1 1 0 0 1 1-.53 1 1 0 0 1 .87.66 12.58 12.58 0 0 1 -.58 8.84 22.13 22.13 0 0 1 -1.83 3.48l2-1.14a1 1 0 0 1 1.47 1.13c-1.47 5.36-5.29 9.46-8.45 12.43q-.54.49-1 .93c-1.17 1-2.1 1.82-2.46 3.22a24.29 24.29 0 0 0 -.53 3.29 23 23 0 0 1 -.81 4.33 42.44 42.44 0 0 1 -4.16 9.11c-7.1 11.38-19.26 18.47-31.87 18.47zm-36.76-40a95.46 95.46 0 0 0 2.24 9.86 40.51 40.51 0 0 0 7.46 14.77 35.33 35.33 0 0 0 27.08 13.37c11.92 0 23.42-6.73 30-17.55a40.34 40.34 0 0 0 4-8.68 20.11 20.11 0 0 0 .73-4 26.14 26.14 0 0 1 .59-3.54 8.22 8.22 0 0 1 3.04-4.17c.32-.28.65-.56 1-.88a29.78 29.78 0 0 0 7-9l-3.54 2.07a1 1 0 0 1 -1.36-1.47 32.42 32.42 0 0 0 4.26-6.83 12 12 0 0 0 1-5.07 17.67 17.67 0 0 1 -9.16 6.42 1 1 0 0 1 -.79-1.82 9.76 9.76 0 0 0 4.36-6.67 18.43 18.43 0 0 0 .08-6 15.63 15.63 0 0 1 -6.89 2.36 30.28 30.28 0 0 1 -9.77-1.87 48.93 48.93 0 0 1 -6.06-3c-.59-.33-1.17-.66-1.77-1a78 78 0 0 0 -18.84-7.24c-3.33-.8-7.14-1.42-10.27.08-2.68 1.28-4.48 3.88-6.23 6.66a1 1 0 0 1 -.8.47 1 1 0 0 1 -.83-.38c-1.92-2.42-6-2.13-8.82-.62-9.27 4.91-8.77 17-8.36 26.71v1a52.65 52.65 0 0 0 .61 6z" fill="#093f68"/><path d="m201.24 152.67h10.56a0 0 0 0 1 0 0v6.08a4.48 4.48 0 0 1 -4.48 4.48h-1.59a4.48 4.48 0 0 1 -4.48-4.48v-6.08a0 0 0 0 1 0 0z" fill="#ffc9b0"/><path d="m207.32 164.23h-1.59a5.49 5.49 0 0 1 -5.49-5.49v-6.07a1 1 0 0 1 1-1h10.56a1 1 0 0 1 1 1v6.07a5.49 5.49 0 0 1 -5.48 5.49zm-5.08-10.56v5.07a3.5 3.5 0 0 0 3.49 3.49h1.59a3.49 3.49 0 0 0 3.48-3.49v-5.07z" fill="#093f68"/><ellipse cx="176.35" cy="125.24" fill="#ffc9b0" rx="10.26" ry="8.84"/><path d="m176.35 135.08c-6.21 0-11.26-4.41-11.26-9.84s5-9.84 11.26-9.84 11.26 4.41 11.26 9.84-5.05 9.84-11.26 9.84zm0-17.68c-5.11 0-9.26 3.52-9.26 7.84s4.15 7.84 9.26 7.84 9.26-3.52 9.26-7.84-4.16-7.84-9.26-7.84z" fill="#093f68"/><ellipse cx="236.15" cy="125.24" fill="#ffc9b0" rx="10.26" ry="8.84"/><path d="m236.15 135.08c-6.2 0-11.25-4.41-11.25-9.84s5-9.84 11.25-9.84 11.26 4.41 11.26 9.84-5.05 9.84-11.26 9.84zm0-17.68c-5.1 0-9.25 3.52-9.25 7.84s4.15 7.84 9.25 7.84 9.26-3.52 9.26-7.84-4.15-7.84-9.26-7.84z" fill="#093f68"/><path d="m228.62 93.63a24.7 24.7 0 0 0 -2.25-1.11 77.69 77.69 0 0 0 -14.19-4.71 9.34 9.34 0 0 1 -7.18 14.35 3.68 3.68 0 0 0 3.12-3.16 4 4 0 0 0 -1.74-3.21c-3.67-2.86-9.23-1.43-13.32-3.64-2.37-1.29-3.94-3.63-5.42-5.89-.39 6.91-2.24 14.14-6.69 19.58-1.49 1.84-4.49 3-5.25 5.27-1.2 3.49-.12 8.33-.12 12a30.94 30.94 0 1 0 61.88 0c0-4.29.62-8.53-.07-12.77a35.49 35.49 0 0 0 -4.34-11.74 14.84 14.84 0 0 0 -2.48-3.54 9.78 9.78 0 0 0 -1.95-1.43z" fill="#ffc9b0"/><g fill="#093f68"><path d="m206.52 155.05a32 32 0 0 1 -31.94-31.94c0-1.09-.1-2.3-.21-3.59-.25-3-.51-6.1.38-8.7.56-1.64 2-2.72 3.36-3.76a12.64 12.64 0 0 0 2.07-1.81c4.79-5.86 6.16-13.57 6.46-19a1 1 0 0 1 1.84-.49c1.34 2 2.85 4.36 5.06 5.56a16.23 16.23 0 0 0 5.87 1.4c2.64.3 5.38.61 7.59 2.33a4.93 4.93 0 0 1 2.12 4 3.78 3.78 0 0 1 -.08.6 8.3 8.3 0 0 0 2.75-3.13 8.48 8.48 0 0 0 -.45-8.21 1 1 0 0 1 1.07-1.52 78.42 78.42 0 0 1 14.37 4.78 23.86 23.86 0 0 1 2.33 1.15 10.6 10.6 0 0 1 2.15 1.58 15.48 15.48 0 0 1 2.67 3.78 35.88 35.88 0 0 1 4.44 12.06 42.51 42.51 0 0 1 .22 8.86c-.06 1.34-.13 2.72-.13 4.07a32 32 0 0 1 -31.94 31.98zm-18.12-65.87c-.62 5.38-2.34 12-6.67 17.34a14.08 14.08 0 0 1 -2.41 2.13c-1.19.9-2.31 1.75-2.68 2.82-.75 2.2-.51 5.09-.27 7.88.11 1.33.21 2.59.21 3.76a29.94 29.94 0 1 0 59.88 0c0-1.4.07-2.8.13-4.16a41 41 0 0 0 -.19-8.45 34.28 34.28 0 0 0 -4.22-11.41 13.82 13.82 0 0 0 -2.3-3.31 9.32 9.32 0 0 0 -1.76-1.29 23.9 23.9 0 0 0 -2.12-1.06 77.13 77.13 0 0 0 -12-4.15 10.32 10.32 0 0 1 -8.9 13.88 1 1 0 0 1 -.26-2 2.71 2.71 0 0 0 2.28-2.16 3 3 0 0 0 -1.35-2.37c-1.77-1.38-4.11-1.64-6.59-1.93a17.55 17.55 0 0 1 -6.59-1.62 13.26 13.26 0 0 1 -4.19-3.9z"/><circle cx="192.2" cy="118.61" r="2.86"/><circle cx="220.03" cy="118.61" r="2.86"/><path d="m206.24 135.09a18.6 18.6 0 0 1 -2.81-.23 1 1 0 1 1 .35-2 13.8 13.8 0 0 0 4.13.06c.1-.9-1-3.88-2.41-6.64a1 1 0 1 1 1.77-.92c1 1.93 3.27 6.64 2.43 8.51a1.63 1.63 0 0 1 -1.11.94 9.73 9.73 0 0 1 -2.35.28z"/><path d="m198.05 110.39h-13.66a1.59 1.59 0 1 1 0-3.18h13.66a1.59 1.59 0 0 1 0 3.18z"/><path d="m217.53 110.73a1.59 1.59 0 0 1 -.08-3.18l13.64-.7a1.59 1.59 0 0 1 .16 3.18l-13.64.69z"/><path d="m242.72 111.19s-3.2 1.13-5.44-.64-5.76-7-10.08-7.84-11.84 5.16-18.07 4.43-8.32-3.61-17.28-4.49-14.87 5.51-18.07 5.51-4.64-.16-4.64-.16v12.15s4 .16 6.08 2.88 6.88 8.48 11.67 9.92 16.08-4.8 19.32-3.68 9.32 5 15.88 4.8 14.07-12.32 16.95-12.48a31.15 31.15 0 0 1 4.32 0zm-41.72 9.55c-.84 3-5.34 4.25-10 2.92s-7.87-4.81-7-7.76 5.33-4.26 10-2.93 7.84 4.82 7 7.77zm20.53 2.92c-4.72 1.33-9.22 0-10-2.92s2.32-6.43 7-7.77 9.22 0 10 2.93-2.27 6.42-6.99 7.76z" stroke="#093f68" stroke-linecap="round" stroke-linejoin="round" stroke-width="2"/></g><path d="m206.25 178.11s-6.41 3.27-6.95 10c0 0 5.87-.85 6.95-10z" fill="#f56132"/><path d="m199.3 189a.85.85 0 0 1 -.61-.24.88.88 0 0 1 -.28-.73c.56-7.15 7.15-10.59 7.43-10.73a.89.89 0 0 1 .92.06.88.88 0 0 1 .38.84c-1.14 9.74-7.44 10.8-7.71 10.8zm5.72-9a12.27 12.27 0 0 0 -4.61 6.79c1.4-.7 3.59-2.46 4.59-6.79z" fill="#093f68"/><path d="m206.25 178.11s.19 7.27 7.33 9.42c0 0 2.05-5.68-7.33-9.42z" fill="#f56132"/><path d="m213.58 188.42h-.26c-7.68-2.31-8-10.18-8-10.26a.9.9 0 0 1 1.23-.86c10.07 4 7.87 10.5 7.85 10.56a.91.91 0 0 1 -.82.56zm-6.22-8.84a9.21 9.21 0 0 0 5.52 6.75c.05-1.44-.55-4.33-5.52-6.75z" fill="#093f68"/><path d="m182.31 216.56h47.89v17.82h-47.89z" fill="#093f68"/><path d="m230.2 235.38h-47.89a1 1 0 0 1 -1-1v-17.82a1 1 0 0 1 1-1h47.89a1 1 0 0 1 1 1v17.82a1 1 0 0 1 -1 1zm-46.89-2h45.89v-15.82h-45.89z" fill="#093f68"/><path d="m210 139s-10.36-2.32-9.83-1.78-1.53 10.84 3.42 10.89c5.31.08 6.17-6.22 6.41-9.11z" fill="#fff"/><path d="m203.67 149.14h-.08a3.58 3.58 0 0 1 -2.68-1.14c-1.93-2-1.77-6.14-1.66-8.86 0-.55.05-1.22 0-1.48a1.07 1.07 0 0 1 0-.94c.43-.78.55-1 10.94 1.34a1 1 0 0 1 .78 1.06c-.69 8.26-4.34 10.02-7.3 10.02zm-2.39-10.87v.95c-.09 2.09-.24 6 1.1 7.4a1.66 1.66 0 0 0 1.26.52c3 0 4.68-2.4 5.26-7.33-2.96-.65-6.06-1.29-7.62-1.54z" fill="#093f68"/><path d="m160.1 156.53c1.8-2.48 5.87-4.82 9.37-4.37a11.64 11.64 0 0 1 8.49 5.72" fill="#68e1fd"/><path d="m178 158.88a1 1 0 0 1 -.87-.51 10.63 10.63 0 0 0 -7.75-5.21c-3.13-.41-6.82 1.74-8.43 4a1 1 0 1 1 -1.62-1.18c2-2.74 6.4-5.27 10.31-4.77a12.71 12.71 0 0 1 9.23 6.22 1 1 0 0 1 -.87 1.49z" fill="#093f68"/><path d="m254.7 156.53c-1.8-2.48-5.86-4.82-9.37-4.37a11.66 11.66 0 0 0 -8.49 5.72" fill="#68e1fd"/><path d="m236.84 158.88a1 1 0 0 1 -.87-1.49 12.71 12.71 0 0 1 9.23-6.22c3.9-.5 8.32 2 10.31 4.77a1 1 0 1 1 -1.61 1.18c-1.62-2.22-5.3-4.37-8.44-4a10.65 10.65 0 0 0 -7.75 5.21 1 1 0 0 1 -.87.55z" fill="#093f68"/></svg>