<svg fill="none" height="24" viewBox="0 0 24 24" width="24" xmlns="http://www.w3.org/2000/svg"><g stroke="#141b34" stroke-width="1.5"><path d="m2.5 12c0-4.47834 0-6.71751 1.39124-8.10876 1.39125-1.39124 3.63042-1.39124 8.10876-1.39124 4.4783 0 6.7175 0 8.1088 1.39124 1.3912 1.39125 1.3912 3.63042 1.3912 8.10876 0 4.4783 0 6.7175-1.3912 8.1088-1.3913 1.3912-3.6305 1.3912-8.1088 1.3912-4.47834 0-6.71751 0-8.10876-1.3912-1.39124-1.3913-1.39124-3.6305-1.39124-8.1088z"/><g stroke-linecap="round" stroke-linejoin="round"><path d="m6 13.5 1.5-4.5 1.875 4.5m-3.375 0-.5 1.5m.5-1.5h3.375m0 0 .625 1.5"/><path d="m12.5 12v-2.3c0-.18613 0-.27919.0245-.35451.0494-.15222.1688-.27156.321-.32102.0753-.02447.1684-.02447.3545-.02447h1.3c.8284 0 1.5.67157 1.5 1.5 0 .8284-.6716 1.5-1.5 1.5zm0 0v3"/><path d="m18.5 9v6"/></g></g></svg>